<svg viewBox="0 0 1280 720" width="1280" height="720" xmlns="http://www.w3.org/2000/svg"><rect width="1280" height="720" fill="#FCDCFF"></rect><polygon points="0,196.92307692307693 98.46153846153847,196.92307692307693 49.23076923076923,98.46153846153847" fill="#FF7900"></polygon><path d="M 98.46153846153847,196.92307692307693 A 98.46153846153847,98.46153846153847 1 0 0 0,295.3846153846154 L 98.46153846153847,295.3846153846154 Z" fill="#89009E"></path><polygon points="49.23076923076923,297.3846153846154 63.69932928719934,324.70112013846284 94.14990007732496,330.0202742656756 72.64139117034225,352.2219567846141 76.99231883904451,382.82587958047833 49.23076923076923,369.2307692307693 21.469219622493966,382.82587958047833 25.82014729119622,352.2219567846141 4.311638384213509,330.0202742656756 34.76220917433912,324.70112013846284" fill="#A1C181"></polygon><path d="M 98.46153846153847,393.84615384615387 A 98.46153846153847,98.46153846153847 1 0 0 0,492.3076923076923 L 98.46153846153847,492.3076923076923 Z" fill="#A1C181"></path><path d="M 0 689.2307692307693 A 98.46153846153847 98.46153846153847 1 0 0 98.46153846153847 590.7692307692308 L 0 590.7692307692308 Z" fill="#A1C181"></path><circle cx="49.23076923076923" cy="738.4615384615386" r="12.307692307692308" fill="#FF7900"></circle><circle cx="147.6923076923077" cy="147.6923076923077" r="12.307692307692308" fill="#2EFA3E"></circle><polygon points="147.6923076923077,198.92307692307693 162.16086774873781,226.2395816769244 192.6114385388634,231.55873580413711 171.10292963188073,253.76041832307564 175.453857300583,284.3643411189398 147.6923076923077,270.7692307692308 119.93075808403245,284.3643411189398 124.28168575273469,253.76041832307564 102.77317684575198,231.55873580413711 133.2237476358776,226.2395816769244" fill="#89009E"></polygon><path d="M 196.92307692307693,295.3846153846154 A 98.46153846153847,98.46153846153847 1 0 0 98.46153846153847,393.84615384615387 L 196.92307692307693,393.84615384615387 Z" fill="#A1C181"></path><polygon points="98.46153846153847,492.3076923076923 196.92307692307693,492.3076923076923 147.6923076923077,393.84615384615387" fill="#89009E"></polygon><circle cx="147.6923076923077" cy="640.0000000000001" r="12.307692307692308" fill="#2EFA3E"></circle><circle cx="147.6923076923077" cy="738.4615384615386" r="49.23076923076923" fill="#FE9C8F"></circle><path d="M 196.92307692307693 98.46153846153847 A 98.46153846153847 98.46153846153847 1 0 0 295.3846153846154 196.92307692307693 L 295.3846153846154 98.46153846153847 Z" fill="#89009E"></path><polygon points="196.92307692307693,295.3846153846154 295.3846153846154,295.3846153846154 246.15384615384616,196.92307692307693" fill="#A1C181"></polygon><path d="M 295.3846153846154,393.84615384615387 A 98.46153846153847,98.46153846153847 1 0 0 196.92307692307693,492.3076923076923 L 295.3846153846154,492.3076923076923 Z" fill="#2EFA3E"></path><polygon points="196.92307692307693,492.3076923076923 295.3846153846154,492.3076923076923 246.15384615384616,590.7692307692308" fill="#A1C181"></polygon><path d="M 196.92307692307693 590.7692307692308 A 98.46153846153847 98.46153846153847 1 0 0 295.3846153846154 689.2307692307693 L 295.3846153846154 590.7692307692308 Z" fill="#A1C181"></path><polygon points="295.3846153846154,196.92307692307693 393.84615384615387,196.92307692307693 344.61538461538464,98.46153846153847" fill="#FE9C8F"></polygon><polygon points="344.61538461538464,297.3846153846154 359.0839446718148,324.70112013846284 389.5345154619404,330.0202742656756 368.02600655495763,352.2219567846141 372.37693422365993,382.82587958047833 344.61538461538464,369.2307692307693 316.85383500710935,382.82587958047833 321.20476267581165,352.2219567846141 299.6962537688289,330.0202742656756 330.1468245589545,324.70112013846284" fill="#FE9C8F"></polygon><polygon points="295.3846153846154,492.3076923076923 393.84615384615387,492.3076923076923 344.61538461538464,393.84615384615387" fill="#FE9C8F"></polygon><circle cx="344.61538461538464" cy="541.5384615384615" r="12.307692307692308" fill="#89009E"></circle><polygon points="344.61538461538464,691.2307692307693 359.0839446718148,718.5472739846168 389.5345154619404,723.8664281118295 368.02600655495763,746.068110630768 372.37693422365993,776.6720334266322 344.61538461538464,763.0769230769232 316.85383500710935,776.6720334266322 321.20476267581165,746.068110630768 299.6962537688289,723.8664281118295 330.1468245589545,718.5472739846168" fill="#A1C181"></polygon><path d="M 393.84615384615387 0 A 98.46153846153847 98.46153846153847 1 0 0 492.3076923076923 98.46153846153847 L 492.3076923076923 0 Z" fill="#A1C181"></path><circle cx="443.0769230769231" cy="443.0769230769231" r="12.307692307692308" fill="#2EFA3E"></circle><path d="M 393.84615384615387 492.3076923076923 A 98.46153846153847 98.46153846153847 1 0 0 492.3076923076923 590.7692307692308 L 492.3076923076923 492.3076923076923 Z" fill="#FF7900"></path><polygon points="541.5384615384615,2 556.0070215948916,29.31650475384745 586.4575923850173,34.63565888106017 564.9490834780346,56.83734139999871 569.3000111467368,87.4412641958629 541.5384615384615,73.84615384615385 513.7769119301863,87.44126419586291 518.1278395988885,56.837341399998714 496.6193306919058,34.63565888106019 527.0699014820315,29.31650475384745" fill="#FF7900"></polygon><polygon points="492.3076923076923,98.46153846153847 590.7692307692308,98.46153846153847 541.5384615384615,196.92307692307693" fill="#89009E"></polygon><path d="M 492.3076923076923 295.3846153846154 A 98.46153846153847 98.46153846153847 1 0 0 590.7692307692308 393.84615384615387 L 590.7692307692308 295.3846153846154 Z" fill="#2EFA3E"></path><polygon points="492.3076923076923,393.84615384615387 590.7692307692308,393.84615384615387 541.5384615384615,492.3076923076923" fill="#A1C181"></polygon><polygon points="541.5384615384615,494.3076923076923 556.0070215948916,521.6241970615398 586.4575923850173,526.9433511887524 564.9490834780346,549.145033707691 569.3000111467368,579.7489565035552 541.5384615384615,566.1538461538462 513.7769119301863,579.7489565035552 518.1278395988885,549.145033707691 496.6193306919058,526.9433511887524 527.0699014820315,521.6241970615398" fill="#FF7900"></polygon><polygon points="492.3076923076923,689.2307692307693 590.7692307692308,689.2307692307693 541.5384615384615,787.6923076923077" fill="#2EFA3E"></polygon><circle cx="640.0000000000001" cy="49.23076923076923" r="12.307692307692308" fill="#89009E"></circle><polygon points="590.7692307692308,295.3846153846154 689.2307692307693,295.3846153846154 640.0000000000001,393.84615384615387" fill="#89009E"></polygon><circle cx="640.0000000000001" cy="443.0769230769231" r="49.23076923076923" fill="#FF7900"></circle><circle cx="640.0000000000001" cy="640.0000000000001" r="12.307692307692308" fill="#FF7900"></circle><path d="M 787.6923076923076,98.46153846153847 A 98.46153846153847,98.46153846153847 1 0 0 689.2307692307692,196.92307692307693 L 787.6923076923076,196.92307692307693 Z" fill="#89009E"></path><polygon points="738.4615384615385,198.92307692307693 752.9300985179685,226.2395816769244 783.3806693080942,231.55873580413711 761.8721604011115,253.76041832307564 766.2230880698137,284.3643411189398 738.4615384615385,270.7692307692308 710.6999888532632,284.3643411189398 715.0509165219654,253.76041832307564 693.5424076149827,231.55873580413711 723.9929784051084,226.2395816769244" fill="#FF7900"></polygon><circle cx="738.4615384615385" cy="443.0769230769231" r="49.23076923076923" fill="#FE9C8F"></circle><polygon points="689.2307692307692,787.6923076923077 787.6923076923076,787.6923076923077 738.4615384615385,689.2307692307693" fill="#FF7900"></polygon><path d="M 787.6923076923077 0 A 98.46153846153847 98.46153846153847 1 0 0 886.1538461538462 98.46153846153847 L 886.1538461538462 0 Z" fill="#2EFA3E"></path><polygon points="787.6923076923077,98.46153846153847 886.1538461538462,98.46153846153847 836.923076923077,196.92307692307693" fill="#FF7900"></polygon><path d="M 787.6923076923077 393.84615384615387 A 98.46153846153847 98.46153846153847 1 0 0 886.1538461538462 295.3846153846154 L 787.6923076923077 295.3846153846154 Z" fill="#A1C181"></path><polygon points="787.6923076923077,393.84615384615387 886.1538461538462,393.84615384615387 836.923076923077,492.3076923076923" fill="#FF7900"></polygon><polygon points="836.923076923077,494.3076923076923 851.3916369795071,521.6241970615398 881.8422077696328,526.9433511887524 860.3336988626501,549.145033707691 864.6846265313523,579.7489565035552 836.923076923077,566.1538461538462 809.1615273148018,579.7489565035552 813.512454983504,549.145033707691 792.0039460765213,526.9433511887524 822.4545168666469,521.6241970615398" fill="#A1C181"></polygon><polygon points="787.6923076923077,787.6923076923077 886.1538461538462,787.6923076923077 836.923076923077,689.2307692307693" fill="#89009E"></polygon><path d="M 886.1538461538462 0 A 98.46153846153847 98.46153846153847 1 0 0 984.6153846153846 98.46153846153847 L 984.6153846153846 0 Z" fill="#FF7900"></path><polygon points="886.1538461538462,295.3846153846154 984.6153846153846,295.3846153846154 935.3846153846155,196.92307692307693" fill="#89009E"></polygon><circle cx="935.3846153846155" cy="443.0769230769231" r="12.307692307692308" fill="#FF7900"></circle><path d="M 886.1538461538462 492.3076923076923 A 98.46153846153847 98.46153846153847 1 0 0 984.6153846153846 590.7692307692308 L 984.6153846153846 492.3076923076923 Z" fill="#FF7900"></path><polygon points="935.3846153846155,592.7692307692308 949.8531754410456,620.0857355230784 980.3037462311712,625.404889650291 958.7952373241885,647.6065721692296 963.1461649928907,678.2104949650937 935.3846153846155,664.6153846153848 907.6230657763402,678.2104949650937 911.9739934450424,647.6065721692296 890.4654845380597,625.404889650291 920.9160553281854,620.0857355230784" fill="#FE9C8F"></polygon><circle cx="935.3846153846155" cy="738.4615384615386" r="49.23076923076923" fill="#2EFA3E"></circle><polygon points="1033.8461538461538,2 1048.314713902584,29.31650475384745 1078.7652846927094,34.63565888106017 1057.2567757857269,56.83734139999871 1061.6077034544292,87.4412641958629 1033.8461538461538,73.84615384615385 1006.0846042378786,87.44126419586291 1010.4355319065808,56.837341399998714 988.9270229995981,34.63565888106019 1019.3775937897237,29.31650475384745" fill="#A1C181"></polygon><path d="M 1083.076923076923,98.46153846153847 A 98.46153846153847,98.46153846153847 1 0 0 984.6153846153846,196.92307692307693 L 1083.076923076923,196.92307692307693 Z" fill="#FF7900"></path><path d="M 984.6153846153846 295.3846153846154 A 98.46153846153847 98.46153846153847 1 0 0 1083.076923076923 196.92307692307693 L 984.6153846153846 196.92307692307693 Z" fill="#89009E"></path><path d="M 984.6153846153846 295.3846153846154 A 98.46153846153847 98.46153846153847 1 0 0 1083.076923076923 393.84615384615387 L 1083.076923076923 295.3846153846154 Z" fill="#FF7900"></path><circle cx="1033.8461538461538" cy="443.0769230769231" r="12.307692307692308" fill="#A1C181"></circle><polygon points="1033.8461538461538,494.3076923076923 1048.314713902584,521.6241970615398 1078.7652846927094,526.9433511887524 1057.2567757857269,549.145033707691 1061.6077034544292,579.7489565035552 1033.8461538461538,566.1538461538462 1006.0846042378786,579.7489565035552 1010.4355319065808,549.145033707691 988.9270229995981,526.9433511887524 1019.3775937897237,521.6241970615398" fill="#A1C181"></polygon><path d="M 984.6153846153846 590.7692307692308 A 98.46153846153847 98.46153846153847 1 0 0 1083.076923076923 689.2307692307693 L 1083.076923076923 590.7692307692308 Z" fill="#FE9C8F"></path><polygon points="1132.3076923076924,2 1146.7762523641225,29.31650475384745 1177.226823154248,34.63565888106017 1155.7183142472654,56.83734139999871 1160.0692419159677,87.4412641958629 1132.3076923076924,73.84615384615385 1104.546142699417,87.44126419586291 1108.8970703681193,56.837341399998714 1087.3885614611368,34.63565888106019 1117.8391322512623,29.31650475384745" fill="#FE9C8F"></polygon><path d="M 1083.076923076923 196.92307692307693 A 98.46153846153847 98.46153846153847 1 0 0 1181.5384615384617 98.46153846153847 L 1083.076923076923 98.46153846153847 Z" fill="#FE9C8F"></path><path d="M 1083.076923076923 295.3846153846154 A 98.46153846153847 98.46153846153847 1 0 0 1181.5384615384617 196.92307692307693 L 1083.076923076923 196.92307692307693 Z" fill="#FF7900"></path><polygon points="1083.076923076923,393.84615384615387 1181.5384615384617,393.84615384615387 1132.3076923076924,295.3846153846154" fill="#A1C181"></polygon><path d="M 1083.076923076923 492.3076923076923 A 98.46153846153847 98.46153846153847 1 0 0 1181.5384615384617 393.84615384615387 L 1083.076923076923 393.84615384615387 Z" fill="#FF7900"></path><polygon points="1083.076923076923,590.7692307692308 1181.5384615384617,590.7692307692308 1132.3076923076924,492.3076923076923" fill="#2EFA3E"></polygon><polygon points="1132.3076923076924,592.7692307692308 1146.7762523641225,620.0857355230784 1177.226823154248,625.404889650291 1155.7183142472654,647.6065721692296 1160.0692419159677,678.2104949650937 1132.3076923076924,664.6153846153848 1104.546142699417,678.2104949650937 1108.8970703681193,647.6065721692296 1087.3885614611368,625.404889650291 1117.8391322512623,620.0857355230784" fill="#FE9C8F"></polygon><polygon points="1132.3076923076924,691.2307692307693 1146.7762523641225,718.5472739846168 1177.226823154248,723.8664281118295 1155.7183142472654,746.068110630768 1160.0692419159677,776.6720334266322 1132.3076923076924,763.0769230769232 1104.546142699417,776.6720334266322 1108.8970703681193,746.068110630768 1087.3885614611368,723.8664281118295 1117.8391322512623,718.5472739846168" fill="#FF7900"></polygon><circle cx="1230.769230769231" cy="49.23076923076923" r="12.307692307692308" fill="#89009E"></circle><polygon points="1230.769230769231,198.92307692307693 1245.237790825661,226.2395816769244 1275.6883616157866,231.55873580413711 1254.179852708804,253.76041832307564 1258.5307803775063,284.3643411189398 1230.769230769231,270.7692307692308 1203.0076811609556,284.3643411189398 1207.358608829658,253.76041832307564 1185.8500999226753,231.55873580413711 1216.3006707128009,226.2395816769244" fill="#2EFA3E"></polygon><circle cx="1230.769230769231" cy="344.61538461538464" r="12.307692307692308" fill="#FE9C8F"></circle><path d="M 1181.5384615384617 689.2307692307693 A 98.46153846153847 98.46153846153847 1 0 0 1280.0000000000002 590.7692307692308 L 1181.5384615384617 590.7692307692308 Z" fill="#A1C181"></path><circle cx="1230.769230769231" cy="738.4615384615386" r="49.23076923076923" fill="#A1C181"></circle></svg>